<svg width="18" height="18" viewBox="0 0 18 18" fill="none" xmlns="http://www.w3.org/2000/svg">
<path fill-rule="evenodd" clip-rule="evenodd" d="M16.1772 14.4302C17.36 12.8669 18 10.9602 18 8.99995H15C15 12.3137 12.3137 14.9999 9.00001 14.9999C5.6863 14.9999 3.00001 12.3137 3.00001 8.99995C3.00001 5.68624 5.6863 2.99995 9.00001 2.99995C9.9768 2.99995 10.8991 3.23336 11.7141 3.64746L13.0703 0.972929C11.3219 0.0863867 9.33188 -0.205082 7.40271 0.142826C5.47354 0.490735 3.71071 1.45899 2.38217 2.90043C1.05363 4.34186 0.232039 6.17764 0.0422779 8.12873C-0.147484 10.0798 0.304962 12.0395 1.33084 13.7099C2.35672 15.3803 3.89994 16.6702 5.72591 17.3833C7.55189 18.0964 9.56077 18.1939 11.4472 17.6609C13.3336 17.1278 14.9945 15.9935 16.1772 14.4302Z" fill="white"/>
</svg>
