<svg width="42" height="40" viewBox="0 0 42 40" fill="none" xmlns="http://www.w3.org/2000/svg">
<path d="M19.2864 1.84744C20.0637 0.555805 21.9363 0.555802 22.7136 1.84744L28.1338 10.8539C28.413 11.3179 28.8685 11.6488 29.3961 11.771L39.6367 14.1428C41.1053 14.4829 41.684 16.2638 40.6958 17.4023L33.805 25.3403C33.45 25.7493 33.276 26.2847 33.3229 26.8243L34.2317 37.2965C34.3621 38.7984 32.8471 39.8991 31.459 39.311L21.7802 35.2105C21.2815 34.9993 20.7185 34.9993 20.2198 35.2105L10.541 39.311C9.1529 39.8991 7.63794 38.7984 7.76828 37.2965L8.67713 26.8243C8.72396 26.2847 8.54997 25.7493 8.19495 25.3403L1.30424 17.4023C0.316027 16.2639 0.894688 14.4829 2.36332 14.1428L12.6039 11.771C13.1315 11.6488 13.587 11.3179 13.8662 10.8539L19.2864 1.84744Z" fill="#C4C4C4"/>
</svg>
