<svg width="63" height="63" viewBox="0 0 63 63" fill="none" xmlns="http://www.w3.org/2000/svg">
<path fill-rule="evenodd" clip-rule="evenodd" d="M56.6202 50.5059C60.7599 45.0344 63 38.361 63 31.5H52.5C52.5 31.5 52.5 31.5 52.5 31.5001C52.5 43.098 43.098 52.5 31.5 52.5C19.902 52.5 10.5 43.098 10.5 31.5001C10.5 19.9021 19.902 10.5001 31.5 10.5001C34.9188 10.5001 38.1467 11.317 40.9993 12.7663L45.7459 3.40546C39.6266 0.302567 32.6616 -0.717573 25.9095 0.500105C19.1574 1.71778 12.9875 5.10669 8.33758 10.1517C3.6877 15.1967 0.812137 21.6219 0.147973 28.4507C-0.516192 35.2795 1.06737 42.1384 4.65795 47.9849C8.24853 53.8314 13.6498 58.3457 20.0407 60.8417C26.4316 63.3376 33.4627 63.6787 40.0652 61.8131C46.6677 59.9476 52.4806 55.9773 56.6202 50.5059Z" fill="#FFEAD7"/>
</svg>
